<?xml version="1.0" standalone="yes"?>
<svg xmlns="http://www.w3.org/2000/svg" width="948" height="349">
<path style="fill:#fdfdfd; stroke:none;" d="M0 0L0 349L948 349L948 0L0 0z"/>
<path style="fill:#ffae04; stroke:none;" d="M53.3333 62.6667C53.2778 62.7222 53.2222 63.7778 53.6667 63.3333C53.7223 63.2777 53.7777 62.2223 53.3333 62.6667z"/>
<path style="fill:#040404; stroke:none;" d="M54 62C55.7988 69.6548 62.0159 76.5239 66.3333 83C74.9679 95.9519 83.3667 109.05 92 122L101.333 136C102.875 138.32 105.322 141.082 105.454 144C105.588 146.949 103.198 149.69 101.667 152L91.6667 167L67 204C62.2271 211.159 56.6833 218.214 53 226L89 226C94.0198 226 101.188 227.289 105.907 225.397C111.754 223.051 115.982 213.027 119.333 208C129.334 192.999 139.697 178.182 149.414 163C152.61 158.006 160.444 150.144 160.444 144C160.444 138.137 153.125 130.687 150 126C139.965 110.948 129.702 96.0462 119.667 81C116.242 75.8661 111.705 65.0744 105.816 62.6034C101.446 60.7701 94.6684 62 90 62L54 62z"/>
<path style="fill:#ffae04; stroke:none;" d="M107 62C110.517 69.4336 115.771 76.1688 120.333 83C128.821 95.7086 137.52 108.281 146 121L156 136C157.533 138.308 159.98 141.072 159.98 144C159.98 146.928 157.533 149.692 156 152C152.463 157.326 149.056 162.747 145.414 168C132.356 186.832 118.145 205.982 107 226L146 226C150.586 226 157.699 227.315 161.816 224.972C167.459 221.761 171.461 212.285 175.001 207L203.667 164C207.08 158.88 215.444 150.374 215.444 144C215.444 137.626 207.08 129.12 203.667 124L175 81C171.477 75.7155 167.449 66.2334 161.816 63.0278C157.699 60.6852 150.586 62 146 62L107 62M54 65L55 66L54 65M55 66L56 67L55 66M56 68L57 69L56 68M57 69L58 70L57 69M233 90L233 125C233 129.851 231.93 136.177 233.318 140.852C234.651 145.341 249.309 145.759 251.972 142.397C254.423 139.302 253 131.731 253 128L253 90C256.87 90 263.325 91.2124 266.682 88.9722C270.054 86.7225 270.619 73.5802 267.397 71.0278C264.302 68.5765 256.731 70 253 70L230 70C226.858 70 222.217 69.1766 219.318 70.6034C215.557 72.4538 215.662 86.4804 218.742 88.9722C221.782 91.4316 229.287 90 233 90M297 125L297 116C301.421 116 312.911 118.041 315.972 114.258C317.621 112.219 317.004 108.426 317 106C316.996 103.591 317.552 99.8858 315.397 98.179C311.554 95.1355 301.688 97 297 97L297 89C303.333 89 309.667 89.0429 316 88.9992C318.209 88.984 321.417 89.3606 322.972 87.3966C324.622 85.3138 324.004 81.4662 324 79C323.996 76.7645 324.468 73.4914 322.972 71.6034C321.417 69.6394 318.209 70.016 316 70.0008L299 70C294.619 70 282.001 67.8494 279.028 71.6034C276.577 74.6983 278 82.2687 278 86L278 126C278 130.125 276.338 139 279.028 142.397C281.025 144.918 286.197 144 289 144L314 144C316.617 143.999 321.109 144.75 322.972 142.397C324.468 140.509 323.996 137.235 324 135C324.004 132.534 324.622 128.686 322.972 126.603C321.417 124.639 318.209 125.016 316 125.001C309.667 124.957 303.333 125 297 125M352 126L368 126C368 130.435 366.616 137.644 368.603 141.682C370.373 145.279 383.602 145.39 385.972 142.397C387.301 140.719 386.986 137.992 386.999 136L387 121C387 107.969 384.21 97.3818 380.414 85C379.23 81.1411 377.967 73.469 374.49 71.0278C370.926 68.5254 363.165 70 359 70C355.237 70 349.583 68.9884 346.228 71.0278C341.959 73.6225 340.743 82.5147 339.424 87C335.253 101.187 333 113.149 333 128C333 131.731 331.577 139.302 334.028 142.397C336.398 145.39 349.627 145.278 351.397 141.682C353.384 137.644 352 130.435 352 126M411 144L430 144C431.067 138.253 429.839 131.375 432.086 126C435.628 117.525 442.894 110.745 445.892 102C447.324 97.8229 447 93.3482 447 89C447 84.9131 448.939 73.8332 445.397 71.0278C443.509 69.5325 440.235 70.0036 438 70C435.534 69.996 431.686 69.3781 429.603 71.0278C427.25 72.8913 428.001 77.3832 428 80C427.997 86.7484 428.404 93.017 424.647 98.9761C421.557 103.878 418.711 102.425 416.238 97.9946C413.412 92.9297 413 88.6935 413 83L413 70C408.637 70 399.161 68.2098 395.603 71.0278C392.061 73.8332 394 84.9131 394 89C394 93.2771 393.51 97.9037 394.969 102C398.077 110.726 405.457 117.447 408.925 126C411.123 131.422 409.928 138.227 411 144M467.001 70.6489C455.427 74.157 455.999 85.1906 456 95C456 102.389 455.892 109.676 463.005 113.991C467.778 116.887 473.785 116.094 478.981 117.72C480.85 118.305 483.454 119.485 483.079 121.91C482.594 125.041 478.34 124.951 476 124.995C471.716 125.076 459.959 122.903 457.028 126.603C454.801 129.416 454.772 141.652 458.318 143.397C460.984 144.708 465.117 144 468 144C476.125 144 486.261 145.594 494 142.736C504.706 138.782 504.001 127.396 504 118C504 111.397 504.045 104.889 497.957 100.728C493.218 97.4884 487.344 97.7215 482.001 96.5177C480.077 96.0845 477.029 95.243 476.631 92.9143C476.133 89.9955 479.941 89.2396 482.001 89.0586C486.28 88.6827 497.007 91.1407 499.972 87.3966C502.199 84.5845 502.228 72.3482 498.682 70.6034C496.255 69.409 492.62 70.0002 490 70C482.856 69.9995 473.883 68.5627 467.001 70.6489M532 70C532 80.9775 530.264 93.2003 531.478 104C532.326 111.545 535.283 118.849 537.667 126C539.261 130.782 540.408 139.032 544.419 142.397C546.527 144.165 549.419 143.981 552 143.999C557.642 144.038 570.954 146.507 574.2 140.772C576.528 136.658 577.434 131.432 579.053 127C585.653 108.939 588.558 89.166 585 70C580.637 70 571.161 68.2099 567.603 71.0278C564.649 73.3675 566 80.6844 566 84C566 90.1646 566.768 96.925 565.625 103C564.41 109.458 561.54 115.4 561 122L557 122C555.909 115.581 553.227 109.484 552.3 103C551.462 97.1342 552 90.9146 552 85C552 81.5241 553.478 73.4684 550.397 71.0278C546.692 68.0934 536.557 70 532 70M613 126L629 126C629 130.435 627.617 137.644 629.603 141.682C631.373 145.279 644.602 145.39 646.972 142.397C648.301 140.719 647.985 137.992 647.999 136L648 121C648 107.469 645.268 96.7914 641 84C639.777 80.3331 638.834 73.3762 635.49 71.0278C631.926 68.5254 624.165 70 620 70C616.273 70 610.582 68.9735 607.275 71.0278C602.793 73.8112 601.937 82.3443 600.576 87C596.525 100.85 594 112.49 594 127C594 131.215 592.778 137.829 594.742 141.682C596.568 145.263 609.585 145.411 611.972 142.397C614.672 138.988 613 130.167 613 126M691 125L679 125L679 100L679 85C679 81.3551 680.238 74.6547 677.821 71.6034C675.415 68.5655 661.395 68.6765 659.603 72.3179C657.623 76.3435 659 83.5956 659 88L659 126C659 129.938 657.171 140.254 660.603 142.972C663.052 144.912 668.09 144 671 144L697 144C699.98 144 705.853 145.073 707.972 142.397C710.895 138.706 709 128.513 709 124C709 119.766 711.046 107.918 707.397 105.028C705.719 103.699 702.992 104.014 701 104.001C698.54 103.985 694.68 103.383 692.603 105.028C688.837 108.011 691 120.571 691 125M720 70L720 121C720 126.643 718.084 136.562 720.603 141.682C722.254 145.036 727.963 144 731 144L760 144C762.876 143.999 767.842 144.841 769.397 141.682C770.591 139.255 770 135.62 770 133L770 114C769.996 111.461 770.517 107.745 768.821 105.603C767.116 103.451 763.408 104 761 104C758.588 104 755.437 103.614 753.318 105.028C748.8 108.042 751 120.22 751 125L739 125L739 85C739 81.524 740.478 73.4684 737.397 71.0278C733.839 68.2099 724.363 70 720 70M826 125L799 125L799 116C803.282 116 815.073 118.058 817.972 114.397C819.622 112.314 819.004 108.466 819 106C818.996 103.581 819.564 99.7442 817.397 98.0278C813.692 95.0934 803.557 97 799 97L799 89L818 89C820.41 88.995 824.114 89.5521 825.821 87.3966C828.901 83.5083 826.822 74.43 826 70L794 70C790.672 70 784.385 68.8249 781.603 71.0278C778.522 73.4685 780 81.5241 780 85L780 127C780 130.786 778.284 140.343 781.603 142.972C783.875 144.772 788.307 144 791 144L816 144C818.793 144 823.832 144.908 825.821 142.397C828.901 138.508 826.822 129.43 826 125M854 70C849.637 70 840.161 68.2099 836.603 71.0278C833.522 73.4684 835 81.5242 835 85C835 90.2024 834.337 95.9474 835.789 101C838.318 109.798 845.419 117.069 849.753 125C851.925 128.974 851.919 132.595 852.005 136.999C852.049 139.308 851.903 142.208 854.318 143.397C857.274 144.851 867.615 145.11 870.258 142.972C874.043 139.91 871.282 131.266 872.702 127C875.717 117.947 883.811 111.047 887.031 102C888.283 98.4802 888 94.6758 888 91C888 86.6194 890.15 74.0008 886.397 71.0278C884.509 69.5324 881.236 70.0036 879 70C876.534 69.996 872.686 69.378 870.603 71.0278C866.542 74.2447 869.504 86.2992 868.787 91C868.32 94.0605 865.441 103.079 861.17 102.369C858.634 101.948 857.211 97.9894 856.263 96C852.532 88.1732 854 78.4712 854 70M58 71L59 72L58 71M59 72L60 73L59 72M60 74L61 75L60 74M61 75L62 76L61 75M62 77L63 78L62 77M63 78L64 79L63 78M64 80L65 81L64 80M65 81L66 82L65 81M66 83L67 84L66 83M67 84L68 85L67 84M68 86L69 87L68 86M69 87L70 88L69 87M70 89L71 90L70 89M71 90L72 91L71 90z"/>
<path style="fill:#fdfdfd; stroke:none;" d="M353 107L367 107C366.198 103.5 364.692 90.6358 359.975 90.6358C354.889 90.6358 353.756 103.337 353 107M614 107L628 107C627 103.223 626.143 92.0197 621.766 90.7515C616.226 89.1463 614.707 103.577 614 107z"/>
<path style="fill:#ffae04; stroke:none;" d="M72 92L73 93L72 92M73 93L74 94L73 93M74 95L75 96L74 95M75 96L76 97L75 96M76 98L77 99L76 98M77 99L78 100L77 99M78 101L79 102L78 101M79 102L80 103L79 102M80 104L81 105L80 104M81 105L82 106L81 105M82 107L83 108L82 107M84 110L85 111L84 110M86 113L87 114L86 113M88 116L89 117L88 116M90 119L91 120L90 119M92 122L93 123L92 122M94 125L95 126L94 125M96 128L97 129L96 128M98 131L99 132L98 131M100 134L101 135L100 134M102 137L103 138L102 137M104 140L105 141L104 140M105 146L106 147L105 146M103 149L104 150L103 149M101 152L102 153L101 152M252 152L253 153L252 152z"/>
<path style="fill:#040404; stroke:none;" d="M275 199L292 199C292 204.998 291.92 211.002 292.004 217C292.038 219.441 291.89 222.505 293.742 224.397C295.954 226.656 300.147 225.999 303 226C309.604 226.003 315.723 227.286 315.985 218.999C316.468 203.699 316 188.308 316 173C316 167.797 317.667 159.043 315.258 154.318C314.202 152.248 312.059 152.112 309.985 152.019C305.766 151.831 295.726 150.274 293.028 154.318C291.612 156.44 292.005 159.585 292 162L292 178L275 178L275 161C274.995 158.764 275.468 155.492 273.972 153.603C272.788 152.108 270.728 152.096 268.995 152.019C265.207 151.852 254.613 150.234 252.603 154.318C250.191 159.221 252 168.604 252 174C252 189.284 251.346 204.728 252.019 219.995C252.364 227.816 260.096 226.012 266 226C268.42 225.995 272.255 226.564 273.972 224.397C275.468 222.508 274.995 219.236 275 217L275 199z"/>
<path style="fill:#ffae04; stroke:none;" d="M293 152L294 153L293 152M343 152L342 154C343.263 153.029 343.392 153.306 343 152z"/>
<path style="fill:#040404; stroke:none;" d="M351 208L370 208C370 212.167 368.328 220.988 371.028 224.397C372.212 225.892 374.272 225.904 376.005 225.981C379.687 226.143 389.271 227.616 391.821 224.397C393.349 222.467 392.987 219.293 392.999 217L393 202C393 188.987 388.845 178.019 384.189 166C382.696 162.145 381.276 155.394 377.606 153.028C373.268 150.23 363.998 152 359 152C354.723 152 348.031 150.766 344.214 153.028C339.96 155.548 338.704 162.712 337 167C334.076 174.355 330.436 182.114 329.3 190C328.455 195.863 329 202.088 329 208C329 212.125 327.338 221 330.028 224.397C332.515 227.537 342.385 226.269 345.981 225.941C347.44 225.809 348.994 225.631 349.972 224.397C352.672 220.987 351 212.167 351 208M429 202C433.613 202 441.767 200.458 445.486 203.742C451.026 208.635 445.742 217.868 448.603 223.682C450.594 227.728 463.14 226.499 466.941 225.852C472.599 224.888 471 217.259 471 213C471 202.303 472.48 188.443 459 186C466.331 177.538 467.132 158.686 454.985 153.613C446.799 150.195 435.696 152 427 152C422.295 152 411.439 149.99 407.603 153.028C404.284 155.657 406 165.214 406 169L406 209C406 212.929 404.456 221.15 407.028 224.397C409.025 226.918 414.197 226 417 226C419.91 226 424.948 226.912 427.397 224.972C429.361 223.417 428.984 220.209 428.999 218L429 202z"/>
<path style="fill:#ffae04; stroke:none;" d="M451 152L452 153L451 152M483 152L484 153L483 152z"/>
<path style="fill:#040404; stroke:none;" d="M484.603 153.028C482.25 154.891 483.001 159.383 483 162L483 186L483 214C483 216.91 482.088 221.948 484.028 224.397C486.468 227.478 494.524 226 498 226C510.319 226 529.541 229.537 539.895 221.362C545.653 216.816 545.997 209.727 546 203C546.004 192.669 546.123 182.33 545.996 172C545.931 166.7 544.914 161.259 540.786 157.532C531.947 149.553 516.898 152 506 152L491 152.001C489.008 152.014 486.281 151.699 484.603 153.028z"/>
<path style="fill:#ffae04; stroke:none;" d="M529 152L530 153L529 152z"/>
<path style="fill:#040404; stroke:none;" d="M598 205C598.709 210.26 599.951 220.378 603.843 224.258C606.111 226.518 610.086 225.995 613 226C616.034 226.005 620.055 226.611 622.775 224.972C628.064 221.787 631.437 207.811 631.907 202C632.837 190.478 632 178.561 632 167C632 163.469 633.301 156.543 630.972 153.603C629.788 152.108 627.728 152.096 625.995 152.019C622.329 151.858 612.56 150.342 610.603 154.318C609.064 157.447 610 162.602 610 166L610 193C607.351 188.835 605.917 182.987 602.363 179.514C592.806 170.177 585.818 185.13 583 192C579.537 180.284 585.117 166.719 581.682 155.148C580.171 150.058 569.127 151.837 565.005 152.019C562.93 152.111 560.641 152.21 559.603 154.318C557.623 158.344 559 165.596 559 170C559 183.115 557.33 197.329 561.205 210C562.577 214.485 564.368 223.386 569.133 225.397C571.212 226.274 573.798 225.995 576 226C579.324 226.007 584.66 226.957 587.272 224.397C592.919 218.862 588.99 207.711 598 205z"/>
<path style="fill:#ffae04; stroke:none;" d="M610 152L611 153L610 152M631 152L632 153L631 152M659 152L660 153L659 152z"/>
<path style="fill:#040404; stroke:none;" d="M667 208L685 208C685 212.317 683.541 219.956 686.028 223.682C688.647 227.607 697.917 226.161 701.995 225.981C703.729 225.904 705.788 225.892 706.972 224.397C708.301 222.719 707.985 219.992 707.999 218L708 202C708 188.774 704.616 178.265 699.797 166C698.206 161.95 696.903 155.346 692.867 153.028C688.155 150.322 679.284 152 674 152C669.773 152 663.112 150.781 659.394 153.179C655.427 155.736 654.142 162.85 652.576 167C649.634 174.8 645.949 182.754 644.465 191C643.472 196.517 644 202.415 644 208C644 212.253 642.386 220.87 645.179 224.397C647.727 227.613 657.305 226.145 660.985 225.981C662.703 225.904 664.652 225.873 665.821 224.397C668.623 220.858 667 212.291 667 208z"/>
<path style="fill:#ffae04; stroke:none;" d="M693 152L694 153L693 152M722 152C721.014 153.478 721 153.203 721 155C722.082 153.616 722.191 153.662 722 152z"/>
<path style="fill:#040404; stroke:none;" d="M745 202C749.608 202 758.071 200.37 761.397 204.318C765.588 209.293 759.251 222.259 765.434 225.397C768.039 226.719 772.17 226 775 226C777.264 226 779.701 226.234 781.941 225.852C787.794 224.855 786 216.377 786 212C786 201.104 787.909 188.209 774 186C782.191 178.982 782.778 161.182 772.957 154.854C763.62 148.839 746.621 152 736 152C732.443 152 726.52 150.904 723.434 153.028C719.354 155.836 721 164.752 721 169L721 208C721 212.404 719.618 219.844 722.179 223.682C724.814 227.631 741.186 227.631 743.821 223.682C747.109 218.755 745 207.747 745 202z"/>
<path style="fill:#ffae04; stroke:none;" d="M766.667 152.333C766.222 152.778 767.278 152.722 767.333 152.667C767.778 152.222 766.722 152.278 766.667 152.333z"/>
<path style="fill:#040404; stroke:none;" d="M821 207L821 198L836 197.999C838.293 197.987 841.467 198.349 843.397 196.821C845.549 195.116 845 191.408 845 189C845 186.629 845.396 183.503 843.972 181.434C840.573 176.495 826.317 179 821 179L821 171L844 171C846.42 170.995 850.255 171.564 851.972 169.397C853.622 167.314 853.004 163.466 853 161C852.996 158.764 853.468 155.491 851.972 153.603C849.739 150.784 843.151 152 840 152L811 152C807.927 152 802.306 150.953 799.742 153.028C796.32 155.797 798 165.089 798 169L798 209C798 213.053 796.509 221.025 799.179 224.397C800.723 226.346 803.802 225.984 806.001 225.999C812.333 226.043 818.667 226 825 226C831.666 226 838.334 226.045 845 225.999C847.209 225.984 850.417 226.361 851.972 224.397C853.468 222.509 852.996 219.235 853 217C853.004 214.534 853.622 210.686 851.972 208.603C850.255 206.436 846.42 207.005 844 207L821 207z"/>
<path style="fill:#ffae04; stroke:none;" d="M852 152L853 153L852 152M315 153L316 154L315 153M533 153L534 154L533 153M694 153L695 154L694 153M770 153L771 154L770 153M798 153L799 154L798 153M379 154L380 155L379 154M536 154L537 155L536 154M609 154C609 166.748 607.613 180.384 609 193C610.441 189.565 610 185.702 610 182C610 173.729 612.206 161.639 609 154M632 154L632 196C635.407 187.882 633 174.797 633 166C633 162.017 633.552 157.699 632 154M657 154L658 155L657 154M853 154L853 169C854.74 164.852 854.74 158.148 853 154M99 155L100 156L99 155M251 155L251 223C252.981 218.28 252 212.08 252 207L252 173C252 167.381 253.189 160.217 251 155M341 155L342 156L341 155M458 155L459 156L458 155M482 155L482 223C484.189 217.784 483 210.619 483 205L483 171C483 165.92 483.981 159.72 482 155M380 156L381 157L380 156M539 156L540 157L539 156M656 156L657 157L656 156M775 156L776 157L775 156M460 157L461 158L460 157M696 157L697 158L696 157M97 158L98 159L97 158M461 158L462 159L461 158M381 159L382 160L381 159M655 159L656 160L655 159M777 159L778 160L777 159M339 160L340 161L339 160M462 160L463 161L462 160M543 160L544 161L543 160M697 160L698 161L697 160M95 161L96 162L95 161M382 161L383 162L382 161M778 161L779 162L778 161M463.333 162.667C463.278 162.722 463.222 163.778 463.667 163.333C463.722 163.278 463.778 162.222 463.333 162.667M544 162L545 163L544 162M698 162L699 163L698 162M338 163L339 164L338 163M93 164L94 165L93 164M383 164L384 165L383 164M545.333 164.667C545.278 164.722 545.222 165.778 545.667 165.333C545.722 165.278 545.778 164.222 545.333 164.667M653 164L654 165L653 164M779.333 164.667C779.278 164.722 779.222 165.778 779.667 165.333C779.722 165.278 779.778 164.222 779.333 164.667M337 165L338 166L337 165M699 165L700 166L699 165M91 167L92 168L91 167M652 167L653 168L652 167M336 168L337 169L336 168M385 169L386 170L385 169M89 170L90 171L89 170M429 170C431.89 171.213 434.874 170.998 438 171C435.11 169.787 432.126 170.002 429 170M546 170L546 208C549.105 200.601 547 189.007 547 181C547 177.298 547.441 173.435 546 170M701 170L702 171L701 170M745 170C747.89 171.213 750.874 170.998 754 171C751.11 169.787 748.126 170.002 745 170M852 170L853 171L852 170z"/>
<path style="fill:#fdfdfd; stroke:none;" d="M429 171L429 184C432.008 183.992 435.933 184.447 438.566 182.682C441.353 180.815 442.196 174.245 439.397 172.028C436.949 170.089 431.927 171 429 171z"/>
<path style="fill:#ffae04; stroke:none;" d="M506 171C509.959 172.661 514.737 172 519 172C515.041 170.339 510.263 171 506 171z"/>
<path style="fill:#fdfdfd; stroke:none;" d="M745 171L745 184C747.866 183.992 751.279 184.345 753.852 182.821C757.297 180.78 758.313 174.451 754.682 172.028C752.121 170.318 747.924 171 745 171z"/>
<path style="fill:#ffae04; stroke:none;" d="M755 171L756 172L755 171M821 171L822 172L821 171z"/>
<path style="fill:#fdfdfd; stroke:none;" d="M353 189L368 189C367.207 185.169 365.708 173.081 360.83 172.466C355.418 171.784 353.554 185.247 353 189z"/>
<path style="fill:#ffae04; stroke:none;" d="M386 172L387 173L386 172z"/>
<path style="fill:#fdfdfd; stroke:none;" d="M506 172L506 207C510.266 207 517.896 208.38 521.258 205.142C523.129 203.34 522.963 200.383 522.996 198C523.075 192.338 523.038 186.663 522.999 181C522.983 178.582 523.268 175.474 521.397 173.603C518.249 170.456 510.096 172 506 172z"/>
<path style="fill:#ffae04; stroke:none;" d="M521 172L522 173L521 172M650 172L651 173L650 172M673 172L674 173L673 172z"/>
<path style="fill:#fdfdfd; stroke:none;" d="M668 189L684 189C682.8 185.31 681.012 172.636 676 172.636C670.988 172.636 669.2 185.31 668 189z"/>
<path style="fill:#ffae04; stroke:none;" d="M678 172L679 173L678 172M87 173L88 174L87 173M334 173L335 174L334 173M363 173L364 174L363 173M522 173L523 174L522 173M702 173L703 174L702 173M387 174L388 175L387 174M672 174L673 175L672 174M679 174L680 175L679 174M356 175L357 176L356 175M649 175L650 176L649 175M703 175L704 176L703 175M85 176L86 177L85 176M333 176L334 177L333 176M364 176L365 177L364 176M388 177L389 178L388 177M591.667 177.333C591.222 177.778 592.278 177.722 592.333 177.667C592.778 177.222 591.722 177.278 591.667 177.333M599 177L600 178L599 177M648 177L649 178L648 177M671 177L672 178L671 177M680 177L681 178L680 177M779.333 177.667C779.278 177.722 779.222 178.778 779.667 178.333C779.722 178.278 779.778 177.222 779.333 177.667M332 178L333 179L332 178M589 178L590 179L589 178M704 178L705 179L704 178M83 179L84 180L83 179M355 179L356 180L355 179M365 179L366 180L365 179M463 179L464 180L463 179M842.667 179.333C842.222 179.778 843.278 179.722 843.333 179.667C843.778 179.222 842.722 179.278 842.667 179.333M389 180L390 181L389 180M603 180L604 181L603 180M647 180L648 181L647 180M670.333 180.667C670.278 180.722 670.222 181.778 670.667 181.333C670.722 181.278 670.778 180.222 670.333 180.667M681.333 180.667C681.278 180.722 681.222 181.778 681.667 181.333C681.722 181.278 681.778 180.222 681.333 180.667M844 180L845 181L844 180M331 181L332 182L331 181M440 181L441 182L440 181M587 181L588 182L587 181M705 181L706 182L705 181M778 181L779 182L778 181M81 182L82 183L81 182M354 182L355 183L354 182M366 182L367 183L366 182M390 182L391 183L390 182M604 182L605 183L604 182M755 182L756 183L755 182M461 183L462 184L461 183M646 183L647 184L646 183M753 183L754 184L753 183M330 184L331 185L330 184M605 184L606 185L605 184M669 184L670 185L669 184M682 184L683 185L682 184M706 184L707 185L706 184M79 185L80 186L79 185M353 185L354 186L353 185M774 185L775 186L774 185M367 186L368 187L367 186M391 186L392 187L391 186M462 186L463 187L462 186M585 186L586 187L585 186M645 186L646 187L645 186M777 186L778 187L777 186M464 187L465 188L464 187M668 187L669 188L668 187M683 187L684 188L683 187M707 187L708 188L707 187M77 188L78 189L77 188M329 188L330 189L329 188M352 188L353 189L352 188M584 188L585 189L584 188M781 188L782 189L781 188M782 189L783 190L782 189M392 190L393 191L392 190M583 190L584 191L583 190M783 190L784 191L783 190M75 191L76 192L75 191M468 191L469 192L468 191M469 193L470 194L469 193M708 193L708 224C710.497 218.049 709 209.42 709 203C709 199.581 709.328 196.166 708 193M73 194L74 195L73 194M328 195L328 223C330.604 216.793 330.604 201.207 328 195M470 196L471 197L470 196M71 197L72 198L71 197M786 197L786 224C788.541 217.945 788.541 203.055 786 197M843 197L844 198L843 197M275 199C279.974 201.087 286.638 200 292 200C287.026 197.913 280.362 199 275 199M69 200L70 201L69 200M444 202L445 203L444 202M760 202L761 203L760 202M67 203L68 204L67 203M446 203L447 204L446 203M559.333 203.667C559.278 203.722 559.222 204.778 559.667 204.333C559.722 204.278 559.778 203.222 559.333 203.667M522 204L523 205L522 204M762 204L763 205L762 204M597 205L598 206L597 205M631 205L632 206L631 205M65 206L66 207L65 206M447 206L447 224C448.952 219.349 448.952 210.651 447 206M821 206L822 207L821 206M560 207L561 208L560 207M852 207L853 208L852 207M369 208L369 223C370.74 218.852 370.74 212.148 369 208M598 208L599 209L598 208M630 208L631 209L630 208M853 208L853 224C854.812 219.681 854.812 212.319 853 208M63 209L64 210L63 209M592 209L593 210L592 209M629 211L630 212L629 211M61 212L62 213L61 212M545.333 212.667C545.278 212.722 545.222 213.778 545.667 213.333C545.722 213.278 545.778 212.222 545.333 212.667M591 212L592 213L591 212M599 212L600 213L599 212M562 213L563 214L562 213M628 214L629 215L628 214M59 215L60 216L59 215M544 215L545 216L544 215M600 215L601 216L600 215M563 216L564 217L563 216M590 216L591 217L590 216M627 216L628 217L627 216M543 217L544 218L543 217M57 218L58 219L57 218M589 219L590 220L589 219M601 219L602 220L601 219M626 219L627 220L626 219M55 221L56 222L55 221M565 221L566 222L565 221M602 222L603 223L602 222M625 222L626 223L625 222M292 223L293 224L292 223M536 223L537 224L536 223M721.333 223.667C721.278 223.722 721.222 224.778 721.667 224.333C721.722 224.278 721.778 223.222 721.333 223.667M744 223L745 224L744 223M53 224L54 225L53 224M315 224L316 225L315 224M392 224L393 225L392 224M624 224L625 225L624 224M644 224L645 225L644 224M666 224L667 225L666 224M685 224L686 225L685 224M763 224L764 225L763 224M798 224L799 225L798 224M252 225L253 226L252 225M293 225L294 226L293 225M329 225L330 226L329 225M370 225L371 226L370 225M448 225L449 226L448 225M483 225L484 226L483 225M529 225L530 226L529 225M604 225L605 226L604 225M623 225L624 226L623 225M686 225L687 226L686 225M707 225L708 226L707 225M722 225L723 226L722 225M743 225L744 226L743 225M785 225L786 226L785 225M852 225L853 226L852 225M53 226C58.2165 228.189 65.3809 227 71 227L107 227C101.784 224.811 94.6191 226 89 226L53 226z"/>
</svg>
